STARTFONT 2.3
FONT -FontForge-Zen Tokyo Zoo-Book-R-Normal--12-120-72-72-P-56-ISO10646-1
SIZE 12 72 72  2
FONTBOUNDINGBOX 17 17 -2 -3
COMMENT "Generated by fontforge, http://fontforge.sourceforge.net"
COMMENT "Copyright 2021 The Zen Tokyo Zoo Project Authors (https://github.com/googlefonts/zen-tokyo-zoo)"
STARTPROPERTIES 40
FOUNDRY "FontForge"
FAMILY_NAME "Zen Tokyo Zoo"
WEIGHT_NAME "Book"
SLANT "R"
SETWIDTH_NAME "Normal"
ADD_STYLE_NAME ""
PIXEL_SIZE 12
POINT_SIZE 120
RESOLUTION_X 72
RESOLUTION_Y 72
SPACING "P"
AVERAGE_WIDTH 56
CHARSET_REGISTRY "ISO10646"
CHARSET_ENCODING "1"
FONTNAME_REGISTRY ""
CHARSET_COLLECTIONS "ISO10646-1"
BITS_PER_PIXEL 2
FONT_NAME "ZenTokyoZoo-Regular"
FACE_NAME "Zen Tokyo Zoo Regular"
COPYRIGHT "Copyright 2021 The Zen Tokyo Zoo Project Authors (https://github.com/googlefonts/zen-tokyo-zoo)"
FONT_VERSION "1.002; ttfautohint (v1.8.3)"
FONT_ASCENT 10
FONT_DESCENT 2
UNDERLINE_POSITION -2
UNDERLINE_THICKNESS 1
X_HEIGHT 4
CAP_HEIGHT 9
RAW_ASCENT 800
RAW_DESCENT 200
NORM_SPACE 3
RELATIVE_WEIGHT 40
RELATIVE_SETWIDTH 50
SUPERSCRIPT_X 0
SUPERSCRIPT_Y 4
SUPERSCRIPT_SIZE 7
SUBSCRIPT_X 0
SUBSCRIPT_Y 0
SUBSCRIPT_SIZE 7
AVG_LOWERCASE_WIDTH 48
AVG_UPPERCASE_WIDTH 91
ENDPROPERTIES
CHARS 338
STARTCHAR CR
ENCODING 13
SWIDTH 600 0
DWIDTH 7 0
BBX 1 1 0 0
BITMAP
00
ENDCHAR
STARTCHAR space
ENCODING 32
SWIDTH 280 0
DWIDTH 3 0
BBX 1 1 0 0
BITMAP
00
ENDCHAR
STARTCHAR exclam
ENCODING 33
SWIDTH 196 0
DWIDTH 2 0
BBX 2 5 0 0
BITMAP
50
50
50
50
50
ENDCHAR
STARTCHAR quotedbl
ENCODING 34
SWIDTH 302 0
DWIDTH 4 0
BBX 4 2 0 3
BITMAP
55
55
ENDCHAR
STARTCHAR numbersign
ENCODING 35
SWIDTH 513 0
DWIDTH 6 0
BBX 5 5 1 0
BITMAP
6640
5540
5500
5500
5500
ENDCHAR
STARTCHAR dollar
ENCODING 36
SWIDTH 379 0
DWIDTH 5 0
BBX 4 6 0 -1
BITMAP
04
55
54
15
56
15
ENDCHAR
STARTCHAR percent
ENCODING 37
SWIDTH 493 0
DWIDTH 6 0
BBX 6 5 0 0
BITMAP
6540
5540
0640
1550
1590
ENDCHAR
STARTCHAR ampersand
ENCODING 38
SWIDTH 487 0
DWIDTH 6 0
BBX 6 5 0 0
BITMAP
1A00
1540
1500
5550
2540
ENDCHAR
STARTCHAR quotesingle
ENCODING 39
SWIDTH 146 0
DWIDTH 2 0
BBX 2 2 0 3
BITMAP
50
50
ENDCHAR
STARTCHAR parenleft
ENCODING 40
SWIDTH 210 0
DWIDTH 3 0
BBX 2 6 0 0
BITMAP
10
50
50
50
50
20
ENDCHAR
STARTCHAR parenright
ENCODING 41
SWIDTH 210 0
DWIDTH 3 0
BBX 2 6 0 0
BITMAP
50
50
20
20
60
50
ENDCHAR
STARTCHAR asterisk
ENCODING 42
SWIDTH 358 0
DWIDTH 4 0
BBX 3 3 1 2
BITMAP
50
44
50
ENDCHAR
STARTCHAR plus
ENCODING 43
SWIDTH 394 0
DWIDTH 5 0
BBX 4 4 0 1
BITMAP
04
59
59
18
ENDCHAR
STARTCHAR comma
ENCODING 44
SWIDTH 216 0
DWIDTH 3 0
BBX 2 2 0 0
BITMAP
10
50
ENDCHAR
STARTCHAR hyphen
ENCODING 45
SWIDTH 326 0
DWIDTH 4 0
BBX 2 2 1 2
BITMAP
50
50
ENDCHAR
STARTCHAR period
ENCODING 46
SWIDTH 176 0
DWIDTH 2 0
BBX 2 1 0 0
BITMAP
50
ENDCHAR
STARTCHAR slash
ENCODING 47
SWIDTH 298 0
DWIDTH 4 0
BBX 3 5 0 0
BITMAP
18
14
14
20
50
ENDCHAR
STARTCHAR zero
ENCODING 48
SWIDTH 306 0
DWIDTH 4 0
BBX 4 5 0 0
BITMAP
68
55
55
55
68
ENDCHAR
STARTCHAR one
ENCODING 49
SWIDTH 306 0
DWIDTH 4 0
BBX 2 5 1 0
BITMAP
60
60
20
20
20
ENDCHAR
STARTCHAR two
ENCODING 50
SWIDTH 299 0
DWIDTH 4 0
BBX 4 5 0 0
BITMAP
68
15
14
50
68
ENDCHAR
STARTCHAR three
ENCODING 51
SWIDTH 324 0
DWIDTH 4 0
BBX 4 5 0 0
BITMAP
68
01
04
55
55
ENDCHAR
STARTCHAR four
ENCODING 52
SWIDTH 339 0
DWIDTH 4 0
BBX 4 5 0 0
BITMAP
14
14
55
55
55
ENDCHAR
STARTCHAR five
ENCODING 53
SWIDTH 363 0
DWIDTH 4 0
BBX 3 5 1 0
BITMAP
A4
40
94
54
A4
ENDCHAR
STARTCHAR six
ENCODING 54
SWIDTH 306 0
DWIDTH 4 0
BBX 4 5 0 0
BITMAP
68
54
54
55
68
ENDCHAR
STARTCHAR seven
ENCODING 55
SWIDTH 298 0
DWIDTH 4 0
BBX 3 5 0 0
BITMAP
54
54
14
14
14
ENDCHAR
STARTCHAR eight
ENCODING 56
SWIDTH 306 0
DWIDTH 4 0
BBX 4 5 0 0
BITMAP
68
55
54
55
68
ENDCHAR
STARTCHAR nine
ENCODING 57
SWIDTH 306 0
DWIDTH 4 0
BBX 4 5 0 0
BITMAP
68
55
15
05
68
ENDCHAR
STARTCHAR colon
ENCODING 58
SWIDTH 176 0
DWIDTH 2 0
BBX 2 3 0 0
BITMAP
50
00
50
ENDCHAR
STARTCHAR semicolon
ENCODING 59
SWIDTH 217 0
DWIDTH 3 0
BBX 2 4 0 -1
BITMAP
20
00
50
50
ENDCHAR
STARTCHAR less
ENCODING 60
SWIDTH 450 0
DWIDTH 5 0
BBX 4 5 1 0
BITMAP
01
15
54
55
05
ENDCHAR
STARTCHAR equal
ENCODING 61
SWIDTH 344 0
DWIDTH 4 0
BBX 4 4 0 0
BITMAP
55
55
55
55
ENDCHAR
STARTCHAR greater
ENCODING 62
SWIDTH 450 0
DWIDTH 5 0
BBX 5 5 0 0
BITMAP
5000
5500
0540
5400
5000
ENDCHAR
STARTCHAR question
ENCODING 63
SWIDTH 346 0
DWIDTH 4 0
BBX 4 5 0 0
BITMAP
29
55
15
14
14
ENDCHAR
STARTCHAR at
ENCODING 64
SWIDTH 490 0
DWIDTH 6 0
BBX 6 5 0 0
BITMAP
1A40
5550
6550
5540
1A00
ENDCHAR
STARTCHAR A
ENCODING 65
SWIDTH 798 0
DWIDTH 10 0
BBX 9 10 0 0
BITMAP
015000
015400
025400
055800
065500
191500
155600
195540
555540
540180
ENDCHAR
STARTCHAR B
ENCODING 66
SWIDTH 784 0
DWIDTH 9 0
BBX 9 10 0 0
BITMAP
555500
555540
555540
540540
555540
555540
540180
540280
555540
56A900
ENDCHAR
STARTCHAR C
ENCODING 67
SWIDTH 776 0
DWIDTH 9 0
BBX 9 10 0 0
BITMAP
02AA40
195540
250100
540000
540000
540000
540000
250100
195540
06AA40
ENDCHAR
STARTCHAR D
ENCODING 68
SWIDTH 806 0
DWIDTH 10 0
BBX 10 10 0 0
BITMAP
555400
555100
555540
540540
540150
540150
540180
540540
555600
56A800
ENDCHAR
STARTCHAR E
ENCODING 69
SWIDTH 677 0
DWIDTH 8 0
BBX 8 10 0 0
BITMAP
5555
5555
5555
5400
5554
56A8
5400
5400
5555
56AA
ENDCHAR
STARTCHAR F
ENCODING 70
SWIDTH 677 0
DWIDTH 8 0
BBX 8 10 0 0
BITMAP
5555
5555
5555
5400
5554
56A8
5400
5400
5400
5400
ENDCHAR
STARTCHAR G
ENCODING 71
SWIDTH 872 0
DWIDTH 10 0
BBX 10 10 0 0
BITMAP
02AA00
195590
250140
540000
541550
541550
541550
250150
195590
06A900
ENDCHAR
STARTCHAR H
ENCODING 72
SWIDTH 781 0
DWIDTH 9 0
BBX 9 10 0 0
BITMAP
540640
540640
540640
540640
555640
56A640
540640
540640
540640
540640
ENDCHAR
STARTCHAR I
ENCODING 73
SWIDTH 262 0
DWIDTH 3 0
BBX 3 10 0 0
BITMAP
54
54
54
54
54
54
54
54
54
54
ENDCHAR
STARTCHAR J
ENCODING 74
SWIDTH 674 0
DWIDTH 8 0
BBX 8 10 0 0
BITMAP
0015
0015
0015
0015
0015
0015
5015
5415
2558
1AA0
ENDCHAR
STARTCHAR K
ENCODING 75
SWIDTH 739 0
DWIDTH 9 0
BBX 9 10 0 0
BITMAP
541540
541500
545400
545400
555000
595000
555000
545400
541500
540540
ENDCHAR
STARTCHAR L
ENCODING 76
SWIDTH 604 0
DWIDTH 7 0
BBX 7 10 0 0
BITMAP
5400
5400
5400
5400
5400
5400
5400
5400
5554
56A8
ENDCHAR
STARTCHAR M
ENCODING 77
SWIDTH 909 0
DWIDTH 11 0
BBX 11 10 0 0
BITMAP
540054
550154
554554
554554
555554
555454
545054
541054
540054
540054
ENDCHAR
STARTCHAR N
ENCODING 78
SWIDTH 796 0
DWIDTH 10 0
BBX 9 10 0 0
BITMAP
540280
550280
554280
554280
555280
545680
545680
541680
540680
540280
ENDCHAR
STARTCHAR O
ENCODING 79
SWIDTH 894 0
DWIDTH 11 0
BBX 11 10 0 0
BITMAP
02AA00
195580
250150
540060
540054
540054
540060
250150
195580
06A900
ENDCHAR
STARTCHAR P
ENCODING 80
SWIDTH 743 0
DWIDTH 9 0
BBX 9 10 0 0
BITMAP
555500
555540
555540
540540
555500
555400
540000
540000
540000
540000
ENDCHAR
STARTCHAR Q
ENCODING 81
SWIDTH 911 0
DWIDTH 11 0
BBX 11 10 0 0
BITMAP
02AA00
195580
250150
540060
540054
540054
540164
250550
195564
06A950
ENDCHAR
STARTCHAR R
ENCODING 82
SWIDTH 745 0
DWIDTH 9 0
BBX 9 10 0 0
BITMAP
555500
555540
555540
540540
555500
555400
541400
541500
541500
540540
ENDCHAR
STARTCHAR S
ENCODING 83
SWIDTH 660 0
DWIDTH 8 0
BBX 8 10 0 0
BITMAP
1AA4
2558
5414
5500
1554
0554
0055
1415
6558
1AA4
ENDCHAR
STARTCHAR T
ENCODING 84
SWIDTH 641 0
DWIDTH 8 0
BBX 8 10 0 0
BITMAP
5555
5555
5555
0240
0240
0240
0240
0240
0240
0240
ENDCHAR
STARTCHAR U
ENCODING 85
SWIDTH 702 0
DWIDTH 8 0
BBX 8 10 0 0
BITMAP
5409
5409
5409
5409
5409
5409
5409
6415
2559
0AA4
ENDCHAR
STARTCHAR V
ENCODING 86
SWIDTH 758 0
DWIDTH 9 0
BBX 9 10 0 0
BITMAP
540540
540540
180A00
151500
151500
066800
055400
055400
029000
015000
ENDCHAR
STARTCHAR W
ENCODING 87
SWIDTH 972 0
DWIDTH 12 0
BBX 12 10 0 0
BITMAP
542815
545418
245464
186554
159554
155560
195650
065550
054540
054240
ENDCHAR
STARTCHAR X
ENCODING 88
SWIDTH 712 0
DWIDTH 9 0
BBX 8 10 0 0
BITMAP
5415
1515
0554
0550
0150
0550
0554
1554
1515
5415
ENDCHAR
STARTCHAR Y
ENCODING 89
SWIDTH 769 0
DWIDTH 9 0
BBX 9 10 0 0
BITMAP
540540
151540
151500
055400
015400
015000
015000
015000
015000
015000
ENDCHAR
STARTCHAR Z
ENCODING 90
SWIDTH 708 0
DWIDTH 9 0
BBX 8 10 0 0
BITMAP
1555
1555
1594
0054
0150
0540
0540
1500
1555
56A9
ENDCHAR
STARTCHAR bracketleft
ENCODING 91
SWIDTH 320 0
DWIDTH 4 0
BBX 3 6 0 -1
BITMAP
54
54
50
50
54
54
ENDCHAR
STARTCHAR backslash
ENCODING 92
SWIDTH 298 0
DWIDTH 4 0
BBX 3 5 0 0
BITMAP
50
20
14
14
18
ENDCHAR
STARTCHAR bracketright
ENCODING 93
SWIDTH 320 0
DWIDTH 4 0
BBX 3 6 1 -1
BITMAP
50
54
14
14
54
50
ENDCHAR
STARTCHAR asciicircum
ENCODING 94
SWIDTH 309 0
DWIDTH 4 0
BBX 2 2 1 3
BITMAP
40
50
ENDCHAR
STARTCHAR underscore
ENCODING 95
SWIDTH 472 0
DWIDTH 6 0
BBX 4 2 1 0
BITMAP
55
55
ENDCHAR
STARTCHAR grave
ENCODING 96
SWIDTH 195 0
DWIDTH 2 0
BBX 1 1 1 6
BITMAP
40
ENDCHAR
STARTCHAR a
ENCODING 97
SWIDTH 414 0
DWIDTH 5 0
BBX 5 5 0 0
BITMAP
1500
1900
1900
6640
6640
ENDCHAR
STARTCHAR b
ENCODING 98
SWIDTH 423 0
DWIDTH 5 0
BBX 5 5 0 0
BITMAP
5540
5540
5640
5140
6A40
ENDCHAR
STARTCHAR c
ENCODING 99
SWIDTH 446 0
DWIDTH 5 0
BBX 5 5 0 0
BITMAP
1A40
5000
5000
5000
1A40
ENDCHAR
STARTCHAR d
ENCODING 100
SWIDTH 450 0
DWIDTH 5 0
BBX 5 5 0 0
BITMAP
5500
5540
5140
5180
6A00
ENDCHAR
STARTCHAR e
ENCODING 101
SWIDTH 363 0
DWIDTH 4 0
BBX 4 5 0 0
BITMAP
55
55
55
50
6A
ENDCHAR
STARTCHAR f
ENCODING 102
SWIDTH 365 0
DWIDTH 4 0
BBX 4 5 0 0
BITMAP
55
55
55
50
50
ENDCHAR
STARTCHAR g
ENCODING 103
SWIDTH 483 0
DWIDTH 6 0
BBX 6 5 0 0
BITMAP
1A40
5040
5140
5050
1A40
ENDCHAR
STARTCHAR h
ENCODING 104
SWIDTH 428 0
DWIDTH 5 0
BBX 5 5 0 0
BITMAP
5140
5140
5640
5140
5140
ENDCHAR
STARTCHAR i
ENCODING 105
SWIDTH 176 0
DWIDTH 2 0
BBX 2 5 0 0
BITMAP
50
50
50
50
50
ENDCHAR
STARTCHAR j
ENCODING 106
SWIDTH 390 0
DWIDTH 5 0
BBX 5 5 0 0
BITMAP
0240
0240
0240
5200
6900
ENDCHAR
STARTCHAR k
ENCODING 107
SWIDTH 381 0
DWIDTH 5 0
BBX 4 5 0 0
BITMAP
55
55
58
65
55
ENDCHAR
STARTCHAR l
ENCODING 108
SWIDTH 330 0
DWIDTH 4 0
BBX 4 5 0 0
BITMAP
50
50
50
50
6A
ENDCHAR
STARTCHAR m
ENCODING 109
SWIDTH 501 0
DWIDTH 6 0
BBX 6 5 0 0
BITMAP
6090
6590
5650
5450
5050
ENDCHAR
STARTCHAR n
ENCODING 110
SWIDTH 444 0
DWIDTH 5 0
BBX 5 5 0 0
BITMAP
6140
5540
5640
5640
5240
ENDCHAR
STARTCHAR o
ENCODING 111
SWIDTH 494 0
DWIDTH 6 0
BBX 6 5 0 0
BITMAP
1A40
5050
5050
5050
1A40
ENDCHAR
STARTCHAR p
ENCODING 112
SWIDTH 412 0
DWIDTH 5 0
BBX 5 5 0 0
BITMAP
5540
5540
5500
5000
5000
ENDCHAR
STARTCHAR q
ENCODING 113
SWIDTH 494 0
DWIDTH 6 0
BBX 6 5 0 0
BITMAP
1A40
5090
5050
5150
1A80
ENDCHAR
STARTCHAR r
ENCODING 114
SWIDTH 412 0
DWIDTH 5 0
BBX 5 5 0 0
BITMAP
5540
5540
5600
5500
5140
ENDCHAR
STARTCHAR s
ENCODING 115
SWIDTH 379 0
DWIDTH 5 0
BBX 4 5 0 0
BITMAP
29
54
51
05
6A
ENDCHAR
STARTCHAR t
ENCODING 116
SWIDTH 349 0
DWIDTH 4 0
BBX 4 5 0 0
BITMAP
55
55
14
14
14
ENDCHAR
STARTCHAR u
ENCODING 117
SWIDTH 400 0
DWIDTH 5 0
BBX 5 5 0 0
BITMAP
5140
5140
5140
5240
2900
ENDCHAR
STARTCHAR v
ENCODING 118
SWIDTH 394 0
DWIDTH 5 0
BBX 5 5 0 0
BITMAP
5140
5200
2900
1900
1800
ENDCHAR
STARTCHAR w
ENCODING 119
SWIDTH 521 0
DWIDTH 6 0
BBX 6 5 0 0
BITMAP
5560
5650
5A90
2990
1980
ENDCHAR
STARTCHAR x
ENCODING 120
SWIDTH 369 0
DWIDTH 4 0
BBX 4 5 0 0
BITMAP
55
19
28
29
55
ENDCHAR
STARTCHAR y
ENCODING 121
SWIDTH 422 0
DWIDTH 5 0
BBX 5 5 0 0
BITMAP
5140
1900
1500
0800
0800
ENDCHAR
STARTCHAR z
ENCODING 122
SWIDTH 409 0
DWIDTH 5 0
BBX 5 5 0 0
BITMAP
5500
0500
0500
1400
6A40
ENDCHAR
STARTCHAR braceleft
ENCODING 123
SWIDTH 443 0
DWIDTH 5 0
BBX 4 6 1 -1
BITMAP
15
15
54
54
15
15
ENDCHAR
STARTCHAR bar
ENCODING 124
SWIDTH 196 0
DWIDTH 2 0
BBX 2 6 0 0
BITMAP
50
50
50
50
50
50
ENDCHAR
STARTCHAR braceright
ENCODING 125
SWIDTH 506 0
DWIDTH 6 0
BBX 4 6 1 -1
BITMAP
54
58
09
09
58
54
ENDCHAR
STARTCHAR asciitilde
ENCODING 126
SWIDTH 450 0
DWIDTH 5 0
BBX 2 2 3 1
BITMAP
50
50
ENDCHAR
STARTCHAR uni00A0
ENCODING 160
SWIDTH 280 0
DWIDTH 3 0
BBX 1 1 0 0
BITMAP
00
ENDCHAR
STARTCHAR exclamdown
ENCODING 161
SWIDTH 196 0
DWIDTH 2 0
BBX 2 5 0 -1
BITMAP
50
50
50
50
50
ENDCHAR
STARTCHAR cent
ENCODING 162
SWIDTH 305 0
DWIDTH 4 0
BBX 4 6 0 -1
BITMAP
14
14
50
55
14
14
ENDCHAR
STARTCHAR sterling
ENCODING 163
SWIDTH 408 0
DWIDTH 5 0
BBX 5 5 0 0
BITMAP
6900
5900
5500
1000
AA40
ENDCHAR
STARTCHAR currency
ENCODING 164
SWIDTH 401 0
DWIDTH 5 0
BBX 5 5 0 0
BITMAP
1100
5540
1500
5540
1100
ENDCHAR
STARTCHAR yen
ENCODING 165
SWIDTH 423 0
DWIDTH 5 0
BBX 5 5 0 0
BITMAP
5140
1900
1500
1900
1900
ENDCHAR
STARTCHAR brokenbar
ENCODING 166
SWIDTH 196 0
DWIDTH 2 0
BBX 2 5 0 0
BITMAP
50
50
00
50
50
ENDCHAR
STARTCHAR section
ENCODING 167
SWIDTH 322 0
DWIDTH 4 0
BBX 4 6 0 -1
BITMAP
10
54
65
69
55
14
ENDCHAR
STARTCHAR dieresis
ENCODING 168
SWIDTH 287 0
DWIDTH 3 0
BBX 3 1 0 6
BITMAP
58
ENDCHAR
STARTCHAR copyright
ENCODING 169
SWIDTH 493 0
DWIDTH 6 0
BBX 6 6 0 0
BITMAP
1500
5040
4510
5410
5540
1500
ENDCHAR
STARTCHAR ordfeminine
ENCODING 170
SWIDTH 331 0
DWIDTH 4 0
BBX 4 3 0 2
BITMAP
14
28
69
ENDCHAR
STARTCHAR guillemotleft
ENCODING 171
SWIDTH 298 0
DWIDTH 4 0
BBX 3 3 0 1
BITMAP
14
54
14
ENDCHAR
STARTCHAR logicalnot
ENCODING 172
SWIDTH 420 0
DWIDTH 5 0
BBX 5 3 0 0
BITMAP
5540
5540
0140
ENDCHAR
STARTCHAR uni00AD
ENCODING 173
SWIDTH 326 0
DWIDTH 4 0
BBX 2 2 1 2
BITMAP
50
50
ENDCHAR
STARTCHAR registered
ENCODING 174
SWIDTH 493 0
DWIDTH 6 0
BBX 6 6 0 0
BITMAP
1500
5040
4910
4A10
5040
1500
ENDCHAR
STARTCHAR macron
ENCODING 175
SWIDTH 331 0
DWIDTH 4 0
BBX 2 1 1 6
BITMAP
50
ENDCHAR
STARTCHAR degree
ENCODING 176
SWIDTH 298 0
DWIDTH 4 0
BBX 3 3 0 2
BITMAP
14
54
14
ENDCHAR
STARTCHAR plusminus
ENCODING 177
SWIDTH 418 0
DWIDTH 5 0
BBX 5 5 0 0
BITMAP
0800
1900
1900
0400
6A40
ENDCHAR
STARTCHAR uni00B2
ENCODING 178
SWIDTH 233 0
DWIDTH 3 0
BBX 2 3 0 2
BITMAP
10
10
50
ENDCHAR
STARTCHAR uni00B3
ENCODING 179
SWIDTH 228 0
DWIDTH 3 0
BBX 1 3 1 2
BITMAP
40
00
80
ENDCHAR
STARTCHAR acute
ENCODING 180
SWIDTH 195 0
DWIDTH 2 0
BBX 1 1 1 6
BITMAP
40
ENDCHAR
STARTCHAR uni00B5
ENCODING 181
SWIDTH 506 0
DWIDTH 6 0
BBX 6 7 0 -2
BITMAP
5140
5140
5140
5140
5A50
5000
5000
ENDCHAR
STARTCHAR paragraph
ENCODING 182
SWIDTH 435 0
DWIDTH 5 0
BBX 5 5 0 0
BITMAP
5540
5540
1540
0540
0540
ENDCHAR
STARTCHAR periodcentered
ENCODING 183
SWIDTH 176 0
DWIDTH 2 0
BBX 2 1 0 2
BITMAP
50
ENDCHAR
STARTCHAR cedilla
ENCODING 184
SWIDTH 261 0
DWIDTH 3 0
BBX 2 2 1 -2
BITMAP
90
50
ENDCHAR
STARTCHAR uni00B9
ENCODING 185
SWIDTH 218 0
DWIDTH 3 0
BBX 1 3 1 2
BITMAP
40
40
40
ENDCHAR
STARTCHAR ordmasculine
ENCODING 186
SWIDTH 335 0
DWIDTH 4 0
BBX 4 3 0 2
BITMAP
28
55
28
ENDCHAR
STARTCHAR guillemotright
ENCODING 187
SWIDTH 298 0
DWIDTH 4 0
BBX 3 3 0 1
BITMAP
44
54
44
ENDCHAR
STARTCHAR onequarter
ENCODING 188
SWIDTH 429 0
DWIDTH 5 0
BBX 4 4 1 0
BITMAP
44
54
15
55
ENDCHAR
STARTCHAR onehalf
ENCODING 189
SWIDTH 437 0
DWIDTH 5 0
BBX 5 5 0 0
BITMAP
5100
1500
0440
1440
1140
ENDCHAR
STARTCHAR threequarters
ENCODING 190
SWIDTH 409 0
DWIDTH 5 0
BBX 5 5 0 0
BITMAP
1100
1500
5400
1500
1140
ENDCHAR
STARTCHAR questiondown
ENCODING 191
SWIDTH 346 0
DWIDTH 4 0
BBX 4 5 0 -1
BITMAP
14
14
14
55
14
ENDCHAR
STARTCHAR Agrave
ENCODING 192
SWIDTH 798 0
DWIDTH 10 0
BBX 9 14 0 0
BITMAP
010000
014000
005000
000000
015000
015400
025400
055800
065500
191500
155600
195540
555540
540180
ENDCHAR
STARTCHAR Aacute
ENCODING 193
SWIDTH 798 0
DWIDTH 10 0
BBX 9 14 0 0
BITMAP
001400
001400
005000
000000
015000
015400
025400
055800
065500
191500
155600
195540
555540
540180
ENDCHAR
STARTCHAR Acircumflex
ENCODING 194
SWIDTH 798 0
DWIDTH 10 0
BBX 9 14 0 0
BITMAP
004000
015000
051400
000000
015000
015400
025400
055800
065500
191500
155600
195540
555540
540180
ENDCHAR
STARTCHAR Atilde
ENCODING 195
SWIDTH 798 0
DWIDTH 10 0
BBX 9 12 0 0
BITMAP
014400
041400
015000
015400
025400
055800
065500
191500
155600
195540
555540
540180
ENDCHAR
STARTCHAR Adieresis
ENCODING 196
SWIDTH 798 0
DWIDTH 10 0
BBX 9 13 0 0
BITMAP
051400
045100
051400
015000
015400
025400
055800
065500
191500
155600
195540
555540
540180
ENDCHAR
STARTCHAR Aring
ENCODING 197
SWIDTH 798 0
DWIDTH 10 0
BBX 9 13 0 0
BITMAP
005000
011000
005000
015000
015400
025400
055800
065500
191500
155600
195540
555540
540180
ENDCHAR
STARTCHAR AE
ENCODING 198
SWIDTH 1078 0
DWIDTH 13 0
BBX 13 10 0 0
BITMAP
00195540
00555540
00555540
01550000
01555500
0559AA00
05490000
155A0000
15560000
54066A40
ENDCHAR
STARTCHAR Ccedilla
ENCODING 199
SWIDTH 776 0
DWIDTH 9 0
BBX 9 13 0 -3
BITMAP
02AA40
195540
250100
540000
540000
540000
540000
250100
195540
06EA40
009000
001000
015000
ENDCHAR
STARTCHAR Egrave
ENCODING 200
SWIDTH 677 0
DWIDTH 8 0
BBX 8 14 0 0
BITMAP
0140
0150
0050
0000
5555
5555
5555
5400
5554
56A8
5400
5400
5555
56AA
ENDCHAR
STARTCHAR Eacute
ENCODING 201
SWIDTH 677 0
DWIDTH 8 0
BBX 8 14 0 0
BITMAP
0050
0050
0140
0000
5555
5555
5555
5400
5554
56A8
5400
5400
5555
56AA
ENDCHAR
STARTCHAR Ecircumflex
ENCODING 202
SWIDTH 677 0
DWIDTH 8 0
BBX 8 14 0 0
BITMAP
0140
0150
0514
0000
5555
5555
5555
5400
5554
56A8
5400
5400
5555
56AA
ENDCHAR
STARTCHAR Edieresis
ENCODING 203
SWIDTH 677 0
DWIDTH 8 0
BBX 8 13 0 0
BITMAP
0514
0551
0514
5555
5555
5555
5400
5554
56A8
5400
5400
5555
56AA
ENDCHAR
STARTCHAR Igrave
ENCODING 204
SWIDTH 262 0
DWIDTH 3 0
BBX 4 14 -1 0
BITMAP
50
14
14
00
15
15
15
15
15
15
15
15
15
15
ENDCHAR
STARTCHAR Iacute
ENCODING 205
SWIDTH 262 0
DWIDTH 3 0
BBX 4 14 0 0
BITMAP
05
14
14
00
54
54
54
54
54
54
54
54
54
54
ENDCHAR
STARTCHAR Icircumflex
ENCODING 206
SWIDTH 262 0
DWIDTH 3 0
BBX 5 14 -1 0
BITMAP
1400
1500
5140
0000
1500
1500
1500
1500
1500
1500
1500
1500
1500
1500
ENDCHAR
STARTCHAR Idieresis
ENCODING 207
SWIDTH 262 0
DWIDTH 3 0
BBX 7 13 -2 0
BITMAP
1450
5444
1450
0540
0540
0540
0540
0540
0540
0540
0540
0540
0540
ENDCHAR
STARTCHAR Eth
ENCODING 208
SWIDTH 856 0
DWIDTH 10 0
BBX 10 10 0 0
BITMAP
195500
195540
195550
140150
554190
AA8090
140150
180190
195640
19A900
ENDCHAR
STARTCHAR Ntilde
ENCODING 209
SWIDTH 796 0
DWIDTH 10 0
BBX 9 12 0 0
BITMAP
014400
041400
540280
550280
554280
554280
555280
545680
545680
541680
540680
540280
ENDCHAR
STARTCHAR Ograve
ENCODING 210
SWIDTH 894 0
DWIDTH 11 0
BBX 11 14 0 0
BITMAP
014000
005000
005000
000000
02AA00
195580
250150
540060
540054
540054
540060
250150
195580
06A900
ENDCHAR
STARTCHAR Oacute
ENCODING 211
SWIDTH 894 0
DWIDTH 11 0
BBX 11 14 0 0
BITMAP
000400
001400
005400
000000
02AA00
195580
250150
540060
540054
540054
540060
250150
195580
06A900
ENDCHAR
STARTCHAR Ocircumflex
ENCODING 212
SWIDTH 894 0
DWIDTH 11 0
BBX 11 14 0 0
BITMAP
005000
015400
014500
000000
02AA00
195580
250150
540060
540054
540054
540060
250150
195580
06A900
ENDCHAR
STARTCHAR Otilde
ENCODING 213
SWIDTH 894 0
DWIDTH 11 0
BBX 11 12 0 0
BITMAP
014100
011400
02AA00
195580
250150
540060
540054
540054
540060
250150
195580
06A900
ENDCHAR
STARTCHAR Odieresis
ENCODING 214
SWIDTH 894 0
DWIDTH 11 0
BBX 11 13 0 0
BITMAP
014500
044500
014500
02AA00
195580
250150
540060
540054
540054
540060
250150
195580
06A900
ENDCHAR
STARTCHAR multiply
ENCODING 215
SWIDTH 370 0
DWIDTH 4 0
BBX 3 3 1 1
BITMAP
54
54
54
ENDCHAR
STARTCHAR Oslash
ENCODING 216
SWIDTH 894 0
DWIDTH 11 0
BBX 11 10 0 0
BITMAP
02A990
195250
250550
541960
546554
559454
568060
1A0150
195580
14A900
ENDCHAR
STARTCHAR Ugrave
ENCODING 217
SWIDTH 702 0
DWIDTH 8 0
BBX 8 14 0 0
BITMAP
0500
0500
0140
0000
5409
5409
5409
5409
5409
5409
5409
6415
2559
0AA4
ENDCHAR
STARTCHAR Uacute
ENCODING 218
SWIDTH 702 0
DWIDTH 8 0
BBX 8 14 0 0
BITMAP
0010
0050
0050
0000
5409
5409
5409
5409
5409
5409
5409
6415
2559
0AA4
ENDCHAR
STARTCHAR Ucircumflex
ENCODING 219
SWIDTH 702 0
DWIDTH 8 0
BBX 8 14 0 0
BITMAP
0140
0550
1554
0000
5409
5409
5409
5409
5409
5409
5409
6415
2559
0AA4
ENDCHAR
STARTCHAR Udieresis
ENCODING 220
SWIDTH 702 0
DWIDTH 8 0
BBX 8 13 0 0
BITMAP
0514
1144
0514
5409
5409
5409
5409
5409
5409
5409
6415
2559
0AA4
ENDCHAR
STARTCHAR Yacute
ENCODING 221
SWIDTH 769 0
DWIDTH 9 0
BBX 9 14 0 0
BITMAP
001400
005000
005000
000000
540540
151540
151500
055400
015400
015000
015000
015000
015000
015000
ENDCHAR
STARTCHAR Thorn
ENCODING 222
SWIDTH 743 0
DWIDTH 9 0
BBX 9 10 0 0
BITMAP
540000
540000
555400
555500
540540
555540
555500
555500
540000
540000
ENDCHAR
STARTCHAR germandbls
ENCODING 223
SWIDTH 424 0
DWIDTH 5 0
BBX 5 5 0 0
BITMAP
1500
5540
5640
5140
5A40
ENDCHAR
STARTCHAR agrave
ENCODING 224
SWIDTH 414 0
DWIDTH 5 0
BBX 5 7 0 0
BITMAP
0400
0000
1500
1900
1900
6640
6640
ENDCHAR
STARTCHAR aacute
ENCODING 225
SWIDTH 414 0
DWIDTH 5 0
BBX 5 7 0 0
BITMAP
0500
0000
1500
1900
1900
6640
6640
ENDCHAR
STARTCHAR acircumflex
ENCODING 226
SWIDTH 414 0
DWIDTH 5 0
BBX 5 7 0 0
BITMAP
1500
0000
1500
1900
1900
6640
6640
ENDCHAR
STARTCHAR atilde
ENCODING 227
SWIDTH 414 0
DWIDTH 5 0
BBX 5 6 0 0
BITMAP
0500
1500
1900
1900
6640
6640
ENDCHAR
STARTCHAR adieresis
ENCODING 228
SWIDTH 414 0
DWIDTH 5 0
BBX 5 7 0 0
BITMAP
1500
0000
1500
1900
1900
6640
6640
ENDCHAR
STARTCHAR aring
ENCODING 229
SWIDTH 414 0
DWIDTH 5 0
BBX 5 7 0 0
BITMAP
0400
0400
1500
1900
1900
6640
6640
ENDCHAR
STARTCHAR ae
ENCODING 230
SWIDTH 593 0
DWIDTH 7 0
BBX 7 5 0 0
BITMAP
0654
0654
1994
1540
65A8
ENDCHAR
STARTCHAR ccedilla
ENCODING 231
SWIDTH 446 0
DWIDTH 5 0
BBX 5 7 0 -2
BITMAP
1A40
5000
5000
5000
1A40
0500
0500
ENDCHAR
STARTCHAR egrave
ENCODING 232
SWIDTH 363 0
DWIDTH 4 0
BBX 4 7 0 0
BITMAP
04
00
55
55
55
50
6A
ENDCHAR
STARTCHAR eacute
ENCODING 233
SWIDTH 363 0
DWIDTH 4 0
BBX 4 7 0 0
BITMAP
05
00
55
55
55
50
6A
ENDCHAR
STARTCHAR ecircumflex
ENCODING 234
SWIDTH 363 0
DWIDTH 4 0
BBX 4 7 0 0
BITMAP
14
00
55
55
55
50
6A
ENDCHAR
STARTCHAR edieresis
ENCODING 235
SWIDTH 363 0
DWIDTH 4 0
BBX 4 7 0 0
BITMAP
15
00
55
55
55
50
6A
ENDCHAR
STARTCHAR igrave
ENCODING 236
SWIDTH 176 0
DWIDTH 2 0
BBX 2 7 0 0
BITMAP
40
00
50
50
50
50
50
ENDCHAR
STARTCHAR iacute
ENCODING 237
SWIDTH 176 0
DWIDTH 2 0
BBX 2 7 0 0
BITMAP
10
00
50
50
50
50
50
ENDCHAR
STARTCHAR icircumflex
ENCODING 238
SWIDTH 176 0
DWIDTH 2 0
BBX 2 7 0 0
BITMAP
50
00
50
50
50
50
50
ENDCHAR
STARTCHAR idieresis
ENCODING 239
SWIDTH 176 0
DWIDTH 2 0
BBX 2 7 0 0
BITMAP
90
00
50
50
50
50
50
ENDCHAR
STARTCHAR eth
ENCODING 240
SWIDTH 455 0
DWIDTH 5 0
BBX 5 5 0 0
BITMAP
5500
5540
5140
5180
6A00
ENDCHAR
STARTCHAR ntilde
ENCODING 241
SWIDTH 444 0
DWIDTH 5 0
BBX 5 6 0 0
BITMAP
0100
6140
5540
5640
5640
5240
ENDCHAR
STARTCHAR ograve
ENCODING 242
SWIDTH 494 0
DWIDTH 6 0
BBX 6 7 0 0
BITMAP
0400
0000
1A40
5050
5050
5050
1A40
ENDCHAR
STARTCHAR oacute
ENCODING 243
SWIDTH 494 0
DWIDTH 6 0
BBX 6 7 0 0
BITMAP
0100
0000
1A40
5050
5050
5050
1A40
ENDCHAR
STARTCHAR ocircumflex
ENCODING 244
SWIDTH 494 0
DWIDTH 6 0
BBX 6 7 0 0
BITMAP
0500
0000
1A40
5050
5050
5050
1A40
ENDCHAR
STARTCHAR otilde
ENCODING 245
SWIDTH 494 0
DWIDTH 6 0
BBX 6 6 0 0
BITMAP
0100
1A40
5050
5050
5050
1A40
ENDCHAR
STARTCHAR odieresis
ENCODING 246
SWIDTH 494 0
DWIDTH 6 0
BBX 6 7 0 0
BITMAP
0600
0000
1A40
5050
5050
5050
1A40
ENDCHAR
STARTCHAR divide
ENCODING 247
SWIDTH 418 0
DWIDTH 5 0
BBX 3 5 1 0
BITMAP
10
10
54
54
10
ENDCHAR
STARTCHAR oslash
ENCODING 248
SWIDTH 494 0
DWIDTH 6 0
BBX 6 5 0 0
BITMAP
1940
5150
5550
5490
1640
ENDCHAR
STARTCHAR ugrave
ENCODING 249
SWIDTH 400 0
DWIDTH 5 0
BBX 5 7 0 0
BITMAP
1400
0000
5140
5140
5140
5240
2900
ENDCHAR
STARTCHAR uacute
ENCODING 250
SWIDTH 400 0
DWIDTH 5 0
BBX 5 7 0 0
BITMAP
0400
0000
5140
5140
5140
5240
2900
ENDCHAR
STARTCHAR ucircumflex
ENCODING 251
SWIDTH 400 0
DWIDTH 5 0
BBX 5 7 0 0
BITMAP
1400
0000
5140
5140
5140
5240
2900
ENDCHAR
STARTCHAR udieresis
ENCODING 252
SWIDTH 400 0
DWIDTH 5 0
BBX 5 7 0 0
BITMAP
2500
0000
5140
5140
5140
5240
2900
ENDCHAR
STARTCHAR yacute
ENCODING 253
SWIDTH 422 0
DWIDTH 5 0
BBX 5 7 0 0
BITMAP
0400
0000
5140
1900
1500
0800
0800
ENDCHAR
STARTCHAR thorn
ENCODING 254
SWIDTH 412 0
DWIDTH 5 0
BBX 5 5 0 0
BITMAP
5000
6500
5140
6500
5000
ENDCHAR
STARTCHAR ydieresis
ENCODING 255
SWIDTH 422 0
DWIDTH 5 0
BBX 5 7 0 0
BITMAP
1500
0000
5140
1900
1500
0800
0800
ENDCHAR
STARTCHAR Edotaccent
ENCODING 278
SWIDTH 677 0
DWIDTH 8 0
BBX 8 12 0 0
BITMAP
0080
0000
5555
5555
5555
5400
5554
56A8
5400
5400
5555
56AA
ENDCHAR
STARTCHAR edotaccent
ENCODING 279
SWIDTH 363 0
DWIDTH 4 0
BBX 4 7 0 0
BITMAP
08
00
55
55
55
50
6A
ENDCHAR
STARTCHAR dotlessi
ENCODING 305
SWIDTH 176 0
DWIDTH 2 0
BBX 2 5 0 0
BITMAP
50
50
50
50
50
ENDCHAR
STARTCHAR OE
ENCODING 338
SWIDTH 1221 0
DWIDTH 15 0
BBX 15 10 0 0
BITMAP
01541550
15541550
15541550
55000000
54001550
54001A90
54000000
25000000
19541550
06A41AA4
ENDCHAR
STARTCHAR oe
ENCODING 339
SWIDTH 637 0
DWIDTH 8 0
BBX 8 5 0 0
BITMAP
1514
5514
5014
5000
1A29
ENDCHAR
STARTCHAR Wcircumflex
ENCODING 372
SWIDTH 972 0
DWIDTH 12 0
BBX 12 14 0 0
BITMAP
001000
005400
014500
000000
542815
545418
245464
186554
159554
155560
195650
065550
054540
054240
ENDCHAR
STARTCHAR wcircumflex
ENCODING 373
SWIDTH 521 0
DWIDTH 6 0
BBX 6 7 0 0
BITMAP
0500
0000
5560
5650
5A90
2990
1980
ENDCHAR
STARTCHAR Ycircumflex
ENCODING 374
SWIDTH 769 0
DWIDTH 9 0
BBX 9 14 0 0
BITMAP
014000
015000
051400
000000
540540
151540
151500
055400
015400
015000
015000
015000
015000
015000
ENDCHAR
STARTCHAR ycircumflex
ENCODING 375
SWIDTH 422 0
DWIDTH 5 0
BBX 5 7 0 0
BITMAP
1500
0000
5140
1900
1500
0800
0800
ENDCHAR
STARTCHAR Ydieresis
ENCODING 376
SWIDTH 769 0
DWIDTH 9 0
BBX 9 13 0 0
BITMAP
051400
051100
051400
540540
151540
151500
055400
015400
015000
015000
015000
015000
015000
ENDCHAR
STARTCHAR circumflex
ENCODING 710
SWIDTH 298 0
DWIDTH 4 0
BBX 2 1 1 6
BITMAP
50
ENDCHAR
STARTCHAR dotaccent
ENCODING 729
SWIDTH 212 0
DWIDTH 3 0
BBX 1 1 1 6
BITMAP
80
ENDCHAR
STARTCHAR ring
ENCODING 730
SWIDTH 212 0
DWIDTH 3 0
BBX 1 2 1 5
BITMAP
40
40
ENDCHAR
STARTCHAR tilde
ENCODING 732
SWIDTH 329 0
DWIDTH 4 0
BBX 1 1 2 5
BITMAP
40
ENDCHAR
STARTCHAR gravecomb
ENCODING 768
SWIDTH 0 0
DWIDTH 0 0
BBX 1 1 1 6
BITMAP
40
ENDCHAR
STARTCHAR acutecomb
ENCODING 769
SWIDTH 0 0
DWIDTH 0 0
BBX 1 1 1 6
BITMAP
40
ENDCHAR
STARTCHAR uni0302
ENCODING 770
SWIDTH 0 0
DWIDTH 0 0
BBX 2 1 1 6
BITMAP
50
ENDCHAR
STARTCHAR tildecomb
ENCODING 771
SWIDTH 0 0
DWIDTH 0 0
BBX 1 1 2 5
BITMAP
40
ENDCHAR
STARTCHAR uni0307
ENCODING 775
SWIDTH 0 0
DWIDTH 0 0
BBX 1 1 1 6
BITMAP
80
ENDCHAR
STARTCHAR uni0308
ENCODING 776
SWIDTH 0 0
DWIDTH 0 0
BBX 3 1 0 6
BITMAP
58
ENDCHAR
STARTCHAR uni030A
ENCODING 778
SWIDTH 0 0
DWIDTH 0 0
BBX 1 2 1 5
BITMAP
40
40
ENDCHAR
STARTCHAR uni0327
ENCODING 807
SWIDTH 0 0
DWIDTH 0 0
BBX 2 2 1 -2
BITMAP
90
50
ENDCHAR
STARTCHAR Wgrave
ENCODING 7808
SWIDTH 972 0
DWIDTH 12 0
BBX 12 14 0 0
BITMAP
005000
001400
001400
000000
542815
545418
245464
186554
159554
155560
195650
065550
054540
054240
ENDCHAR
STARTCHAR wgrave
ENCODING 7809
SWIDTH 521 0
DWIDTH 6 0
BBX 6 7 0 0
BITMAP
0100
0000
5560
5650
5A90
2990
1980
ENDCHAR
STARTCHAR Wacute
ENCODING 7810
SWIDTH 972 0
DWIDTH 12 0
BBX 12 14 0 0
BITMAP
000400
001400
005000
000000
542815
545418
245464
186554
159554
155560
195650
065550
054540
054240
ENDCHAR
STARTCHAR wacute
ENCODING 7811
SWIDTH 521 0
DWIDTH 6 0
BBX 6 7 0 0
BITMAP
0100
0000
5560
5650
5A90
2990
1980
ENDCHAR
STARTCHAR Wdieresis
ENCODING 7812
SWIDTH 972 0
DWIDTH 12 0
BBX 12 13 0 0
BITMAP
014540
011440
014500
542815
545418
245464
186554
159554
155560
195650
065550
054540
054240
ENDCHAR
STARTCHAR wdieresis
ENCODING 7813
SWIDTH 521 0
DWIDTH 6 0
BBX 6 7 0 0
BITMAP
0900
0000
5560
5650
5A90
2990
1980
ENDCHAR
STARTCHAR uni1E9E
ENCODING 7838
SWIDTH 784 0
DWIDTH 9 0
BBX 9 10 0 0
BITMAP
555500
555500
555500
541500
545500
545540
540240
540280
545540
55AA00
ENDCHAR
STARTCHAR Ygrave
ENCODING 7922
SWIDTH 769 0
DWIDTH 9 0
BBX 9 14 0 0
BITMAP
014000
014000
005000
000000
540540
151540
151500
055400
015400
015000
015000
015000
015000
015000
ENDCHAR
STARTCHAR ygrave
ENCODING 7923
SWIDTH 422 0
DWIDTH 5 0
BBX 5 7 0 0
BITMAP
0400
0000
5140
1900
1500
0800
0800
ENDCHAR
STARTCHAR endash
ENCODING 8211
SWIDTH 507 0
DWIDTH 6 0
BBX 5 2 1 2
BITMAP
5540
5540
ENDCHAR
STARTCHAR emdash
ENCODING 8212
SWIDTH 552 0
DWIDTH 7 0
BBX 5 2 1 2
BITMAP
5540
5540
ENDCHAR
STARTCHAR quoteleft
ENCODING 8216
SWIDTH 146 0
DWIDTH 2 0
BBX 2 2 0 3
BITMAP
40
50
ENDCHAR
STARTCHAR quoteright
ENCODING 8217
SWIDTH 146 0
DWIDTH 2 0
BBX 2 2 0 3
BITMAP
50
10
ENDCHAR
STARTCHAR quotesinglbase
ENCODING 8218
SWIDTH 146 0
DWIDTH 2 0
BBX 2 2 0 -2
BITMAP
50
10
ENDCHAR
STARTCHAR quotedblleft
ENCODING 8220
SWIDTH 297 0
DWIDTH 4 0
BBX 3 2 0 3
BITMAP
44
54
ENDCHAR
STARTCHAR quotedblright
ENCODING 8221
SWIDTH 297 0
DWIDTH 4 0
BBX 4 2 0 3
BITMAP
55
10
ENDCHAR
STARTCHAR quotedblbase
ENCODING 8222
SWIDTH 297 0
DWIDTH 4 0
BBX 4 2 0 -2
BITMAP
55
11
ENDCHAR
STARTCHAR bullet
ENCODING 8226
SWIDTH 302 0
DWIDTH 4 0
BBX 3 3 0 1
BITMAP
14
44
14
ENDCHAR
STARTCHAR ellipsis
ENCODING 8230
SWIDTH 528 0
DWIDTH 6 0
BBX 6 1 0 0
BITMAP
5550
ENDCHAR
STARTCHAR guilsinglleft
ENCODING 8249
SWIDTH 178 0
DWIDTH 2 0
BBX 2 3 0 1
BITMAP
10
50
10
ENDCHAR
STARTCHAR guilsinglright
ENCODING 8250
SWIDTH 178 0
DWIDTH 2 0
BBX 2 3 0 1
BITMAP
40
50
40
ENDCHAR
STARTCHAR fraction
ENCODING 8260
SWIDTH 362 0
DWIDTH 4 0
BBX 4 5 0 0
BITMAP
05
05
14
14
50
ENDCHAR
STARTCHAR uni2074
ENCODING 8308
SWIDTH 204 0
DWIDTH 2 0
BBX 2 3 0 2
BITMAP
50
00
50
ENDCHAR
STARTCHAR Euro
ENCODING 8364
SWIDTH 462 0
DWIDTH 6 0
BBX 5 5 0 0
BITMAP
1A40
1000
5400
1440
1A40
ENDCHAR
STARTCHAR trademark
ENCODING 8482
SWIDTH 461 0
DWIDTH 6 0
BBX 5 3 0 3
BITMAP
B580
1540
1440
ENDCHAR
STARTCHAR minus
ENCODING 8722
SWIDTH 420 0
DWIDTH 5 0
BBX 5 2 0 2
BITMAP
7F40
7F40
ENDCHAR
STARTCHAR uni2215
ENCODING 8725
SWIDTH 278 0
DWIDTH 3 0
BBX 3 5 0 0
BITMAP
18
14
14
20
50
ENDCHAR
STARTCHAR .notdef
ENCODING -1
SWIDTH 500 0
DWIDTH 6 0
BBX 6 14 0 -3
BITMAP
6A90
5050
5050
5050
5050
5050
5050
5050
5050
5050
5050
5050
5050
6A90
ENDCHAR
STARTCHAR NULL
ENCODING -1
SWIDTH 600 0
DWIDTH 7 0
BBX 1 1 0 0
BITMAP
00
ENDCHAR
STARTCHAR acutecomb.case
ENCODING -1
SWIDTH 0 0
DWIDTH 0 0
BBX 2 3 1 11
BITMAP
10
50
50
ENDCHAR
STARTCHAR ampersand.case
ENCODING -1
SWIDTH 797 0
DWIDTH 10 0
BBX 9 10 0 0
BITMAP
06A000
095400
152800
066400
059000
159100
556540
545540
655500
1A9540
ENDCHAR
STARTCHAR asciicircum.case
ENCODING -1
SWIDTH 540 0
DWIDTH 6 0
BBX 6 5 0 5
BITMAP
0500
0540
1540
1450
5050
ENDCHAR
STARTCHAR asciitilde.case
ENCODING -1
SWIDTH 640 0
DWIDTH 8 0
BBX 7 3 0 4
BITMAP
1500
5598
15A4
ENDCHAR
STARTCHAR asterisk.case
ENCODING -1
SWIDTH 482 0
DWIDTH 6 0
BBX 4 4 1 6
BITMAP
14
45
41
55
ENDCHAR
STARTCHAR at.case
ENCODING -1
SWIDTH 915 0
DWIDTH 11 0
BBX 11 10 0 0
BITMAP
02AA00
090090
145520
615914
514514
514514
615954
145550
090100
02A900
ENDCHAR
STARTCHAR backslash.case
ENCODING -1
SWIDTH 504 0
DWIDTH 6 0
BBX 6 11 0 -1
BITMAP
5400
5400
2800
1500
1500
0A00
0540
0540
0280
0150
0150
ENDCHAR
STARTCHAR bar.case
ENCODING -1
SWIDTH 262 0
DWIDTH 3 0
BBX 3 11 0 -1
BITMAP
54
54
54
54
54
54
54
54
54
54
54
ENDCHAR
STARTCHAR braceleft.case
ENCODING -1
SWIDTH 504 0
DWIDTH 6 0
BBX 6 12 0 -1
BITMAP
0540
0A40
0A40
0A00
0A00
1A00
5A00
0A00
0A00
0A00
0A50
0540
ENDCHAR
STARTCHAR braceright.case
ENCODING -1
SWIDTH 506 0
DWIDTH 6 0
BBX 6 12 0 -1
BITMAP
1500
5600
0600
0600
0600
0650
0650
0600
0600
1600
1600
1500
ENDCHAR
STARTCHAR bracketleft.case
ENCODING -1
SWIDTH 453 0
DWIDTH 5 0
BBX 5 12 0 -1
BITMAP
5540
5540
5540
5400
5400
5400
5400
5400
5400
5400
5680
5540
ENDCHAR
STARTCHAR bracketright.case
ENCODING -1
SWIDTH 453 0
DWIDTH 5 0
BBX 5 12 0 -1
BITMAP
1540
6640
0240
0240
0240
0240
0240
0240
0240
1640
1640
1540
ENDCHAR
STARTCHAR brokenbar.case
ENCODING -1
SWIDTH 262 0
DWIDTH 3 0
BBX 3 11 0 0
BITMAP
54
54
54
54
54
00
54
54
54
54
54
ENDCHAR
STARTCHAR bullet.case
ENCODING -1
SWIDTH 503 0
DWIDTH 6 0
BBX 6 6 0 2
BITMAP
0500
1540
5050
5050
1540
0500
ENDCHAR
STARTCHAR uni0327.case
ENCODING -1
SWIDTH 0 0
DWIDTH 0 0
BBX 3 4 1 -3
BITMAP
40
90
04
50
ENDCHAR
STARTCHAR cent.case
ENCODING -1
SWIDTH 577 0
DWIDTH 7 0
BBX 6 11 0 -1
BITMAP
0140
0140
0550
1550
5400
5400
5400
1550
0550
0140
0140
ENDCHAR
STARTCHAR uni0302.case
ENCODING -1
SWIDTH 0 0
DWIDTH 0 0
BBX 5 3 1 11
BITMAP
1400
5500
5540
ENDCHAR
STARTCHAR colon.case
ENCODING -1
SWIDTH 262 0
DWIDTH 3 0
BBX 3 7 0 0
BITMAP
54
54
00
00
00
54
54
ENDCHAR
STARTCHAR comma.case
ENCODING -1
SWIDTH 338 0
DWIDTH 4 0
BBX 4 3 0 -1
BITMAP
15
28
54
ENDCHAR
STARTCHAR copyright.case
ENCODING -1
SWIDTH 895 0
DWIDTH 11 0
BBX 11 10 0 0
BITMAP
02A900
190180
245450
515520
514014
514014
515520
245450
190180
02A900
ENDCHAR
STARTCHAR currency.case
ENCODING -1
SWIDTH 676 0
DWIDTH 8 0
BBX 8 7 0 1
BITMAP
1414
5555
0554
0920
1554
5555
1414
ENDCHAR
STARTCHAR degree.case
ENCODING -1
SWIDTH 413 0
DWIDTH 5 0
BBX 5 5 0 5
BITMAP
2A00
5140
5140
5540
1500
ENDCHAR
STARTCHAR uni0308.case
ENCODING -1
SWIDTH 0 0
DWIDTH 0 0
BBX 6 3 0 10
BITMAP
1450
4450
1450
ENDCHAR
STARTCHAR divide.case
ENCODING -1
SWIDTH 618 0
DWIDTH 7 0
BBX 7 7 0 1
BITMAP
0140
0140
1554
6AA8
0140
0140
0140
ENDCHAR
STARTCHAR uni2215.case
ENCODING -1
SWIDTH 483 0
DWIDTH 6 0
BBX 6 10 0 0
BITMAP
0150
0240
0540
0540
0900
1500
1500
2800
5400
5400
ENDCHAR
STARTCHAR dollar.case
ENCODING -1
SWIDTH 660 0
DWIDTH 8 0
BBX 8 11 0 -1
BITMAP
0140
1554
5964
5554
5540
1554
0155
0555
5555
1554
0140
ENDCHAR
STARTCHAR eight.case
ENCODING -1
SWIDTH 561 0
DWIDTH 7 0
BBX 7 10 0 0
BITMAP
1A90
6560
5454
5554
5550
5590
5554
5454
6560
1A90
ENDCHAR
STARTCHAR ellipsis.case
ENCODING -1
SWIDTH 766 0
DWIDTH 9 0
BBX 9 2 0 0
BITMAP
555540
555540
ENDCHAR
STARTCHAR emdash.case
ENCODING -1
SWIDTH 790 0
DWIDTH 9 0
BBX 9 2 0 4
BITMAP
155540
6AAA80
ENDCHAR
STARTCHAR endash.case
ENCODING -1
SWIDTH 721 0
DWIDTH 9 0
BBX 8 2 0 4
BITMAP
1555
6AAA
ENDCHAR
STARTCHAR equal.case
ENCODING -1
SWIDTH 618 0
DWIDTH 7 0
BBX 6 6 1 2
BITMAP
5550
5550
5550
5550
5550
5550
ENDCHAR
STARTCHAR Euro.case
ENCODING -1
SWIDTH 767 0
DWIDTH 9 0
BBX 9 10 0 0
BITMAP
01AA00
065540
190100
150000
555000
AAA000
150000
190100
065540
01AA00
ENDCHAR
STARTCHAR exclam.case
ENCODING -1
SWIDTH 262 0
DWIDTH 3 0
BBX 3 10 0 0
BITMAP
54
54
54
54
54
54
54
00
54
54
ENDCHAR
STARTCHAR exclamdown.case
ENCODING -1
SWIDTH 262 0
DWIDTH 3 0
BBX 3 10 0 -3
BITMAP
54
54
00
54
54
54
54
54
54
54
ENDCHAR
STARTCHAR five.case
ENCODING -1
SWIDTH 558 0
DWIDTH 7 0
BBX 7 10 0 0
BITMAP
1550
1550
5400
5400
5540
5690
0054
5454
6560
1A90
ENDCHAR
STARTCHAR four.case
ENCODING -1
SWIDTH 585 0
DWIDTH 7 0
BBX 7 10 0 0
BITMAP
0140
0540
0540
1500
1500
5550
5554
5554
5554
0150
ENDCHAR
STARTCHAR uni2074.case
ENCODING -1
SWIDTH 312 0
DWIDTH 4 0
BBX 4 4 0 6
BITMAP
14
50
55
55
ENDCHAR
STARTCHAR fraction.case
ENCODING -1
SWIDTH 655 0
DWIDTH 8 0
BBX 6 10 1 0
BITMAP
0050
0050
0140
0140
0500
0500
1400
1400
5000
5000
ENDCHAR
STARTCHAR gravecomb.case
ENCODING -1
SWIDTH 0 0
DWIDTH 0 0
BBX 2 3 1 11
BITMAP
40
50
50
ENDCHAR
STARTCHAR greater.case
ENCODING -1
SWIDTH 677 0
DWIDTH 8 0
BBX 8 8 0 1
BITMAP
5000
5500
1550
0155
0554
5540
5500
5000
ENDCHAR
STARTCHAR guillemotleft.case
ENCODING -1
SWIDTH 666 0
DWIDTH 8 0
BBX 8 6 0 2
BITMAP
0504
1514
5555
5454
5555
0515
ENDCHAR
STARTCHAR guillemotright.case
ENCODING -1
SWIDTH 666 0
DWIDTH 8 0
BBX 8 6 0 2
BITMAP
1050
1454
5555
1515
5555
5450
ENDCHAR
STARTCHAR guilsinglleft.case
ENCODING -1
SWIDTH 338 0
DWIDTH 4 0
BBX 4 6 0 2
BITMAP
05
15
55
54
55
05
ENDCHAR
STARTCHAR guilsinglright.case
ENCODING -1
SWIDTH 338 0
DWIDTH 4 0
BBX 4 6 0 2
BITMAP
10
14
55
15
55
54
ENDCHAR
STARTCHAR hyphen.case
ENCODING -1
SWIDTH 445 0
DWIDTH 5 0
BBX 5 2 0 4
BITMAP
1540
6A80
ENDCHAR
STARTCHAR less.case
ENCODING -1
SWIDTH 677 0
DWIDTH 8 0
BBX 7 8 1 1
BITMAP
0014
0054
0554
5540
5540
1550
0154
0014
ENDCHAR
STARTCHAR logicalnot.case
ENCODING -1
SWIDTH 618 0
DWIDTH 7 0
BBX 7 5 0 1
BITMAP
1554
6AA8
0000
0024
0024
ENDCHAR
STARTCHAR uni00B5.case
ENCODING -1
SWIDTH 792 0
DWIDTH 10 0
BBX 9 13 0 -3
BITMAP
540900
540900
540900
540900
540900
540900
540900
541500
555940
56A580
540000
540000
540000
ENDCHAR
STARTCHAR minus.case
ENCODING -1
SWIDTH 618 0
DWIDTH 7 0
BBX 7 2 0 4
BITMAP
1554
6AA8
ENDCHAR
STARTCHAR multiply.case
ENCODING -1
SWIDTH 580 0
DWIDTH 7 0
BBX 7 6 0 2
BITMAP
0050
2954
0550
1540
55A0
1410
ENDCHAR
STARTCHAR nine.case
ENCODING -1
SWIDTH 558 0
DWIDTH 7 0
BBX 7 10 0 0
BITMAP
1A90
6560
5454
5454
1A54
0554
0054
5454
6560
1A90
ENDCHAR
STARTCHAR numbersign.case
ENCODING -1
SWIDTH 776 0
DWIDTH 9 0
BBX 8 10 1 0
BITMAP
1528
1514
5955
5955
6555
5554
5564
5564
5490
6550
ENDCHAR
STARTCHAR one.case
ENCODING -1
SWIDTH 378 0
DWIDTH 5 0
BBX 4 10 0 0
BITMAP
5A
5A
5A
0A
0A
0A
0A
0A
0A
0A
ENDCHAR
STARTCHAR onehalf.case
ENCODING -1
SWIDTH 735 0
DWIDTH 9 0
BBX 8 10 0 0
BITMAP
5805
0814
0814
0850
0450
015A
0145
0505
0515
1415
ENDCHAR
STARTCHAR onequarter.case
ENCODING -1
SWIDTH 722 0
DWIDTH 9 0
BBX 8 10 0 0
BITMAP
5805
0814
0814
0850
0450
0145
0154
0516
0516
1400
ENDCHAR
STARTCHAR uni00B9.case
ENCODING -1
SWIDTH 306 0
DWIDTH 4 0
BBX 3 5 0 5
BITMAP
58
08
08
08
04
ENDCHAR
STARTCHAR ordfeminine.case
ENCODING -1
SWIDTH 456 0
DWIDTH 5 0
BBX 4 5 1 5
BITMAP
24
54
55
95
41
ENDCHAR
STARTCHAR ordmasculine.case
ENCODING -1
SWIDTH 489 0
DWIDTH 6 0
BBX 6 5 0 5
BITMAP
1A40
6080
5050
1540
0500
ENDCHAR
STARTCHAR paragraph.case
ENCODING -1
SWIDTH 893 0
DWIDTH 11 0
BBX 10 10 0 0
BITMAP
155550
555550
555550
541520
555520
155520
001520
001520
001520
001520
ENDCHAR
STARTCHAR parenleft.case
ENCODING -1
SWIDTH 290 0
DWIDTH 3 0
BBX 4 11 0 -1
BITMAP
15
18
64
54
54
54
54
54
64
18
15
ENDCHAR
STARTCHAR parenright.case
ENCODING -1
SWIDTH 290 0
DWIDTH 3 0
BBX 3 11 0 0
BITMAP
A0
54
54
24
18
18
18
24
54
54
A0
ENDCHAR
STARTCHAR percent.case
ENCODING -1
SWIDTH 827 0
DWIDTH 10 0
BBX 10 10 0 0
BITMAP
2A0150
514540
515500
151500
005400
015540
055550
151450
151450
540A80
ENDCHAR
STARTCHAR period.case
ENCODING -1
SWIDTH 262 0
DWIDTH 3 0
BBX 3 2 0 0
BITMAP
54
54
ENDCHAR
STARTCHAR periodcentered.case
ENCODING -1
SWIDTH 262 0
DWIDTH 3 0
BBX 3 2 0 4
BITMAP
54
54
ENDCHAR
STARTCHAR plus.case
ENCODING -1
SWIDTH 616 0
DWIDTH 7 0
BBX 7 6 0 2
BITMAP
0540
0540
1554
6968
0540
0540
ENDCHAR
STARTCHAR plusminus.case
ENCODING -1
SWIDTH 618 0
DWIDTH 7 0
BBX 7 9 0 0
BITMAP
0540
0540
1554
6968
0540
0540
0000
1554
6AA8
ENDCHAR
STARTCHAR question.case
ENCODING -1
SWIDTH 598 0
DWIDTH 7 0
BBX 7 10 0 0
BITMAP
1550
1554
5454
0054
0160
0590
0540
0000
0540
0540
ENDCHAR
STARTCHAR questiondown.case
ENCODING -1
SWIDTH 598 0
DWIDTH 7 0
BBX 7 10 0 -3
BITMAP
0540
0540
0000
0540
0940
2500
5400
5454
1554
1550
ENDCHAR
STARTCHAR quotedbl.case
ENCODING -1
SWIDTH 464 0
DWIDTH 6 0
BBX 6 3 0 7
BITMAP
5550
5550
5550
ENDCHAR
STARTCHAR quotedblbase.case
ENCODING -1
SWIDTH 464 0
DWIDTH 6 0
BBX 6 3 0 -1
BITMAP
5550
5550
1450
ENDCHAR
STARTCHAR quotedblleft.case
ENCODING -1
SWIDTH 464 0
DWIDTH 6 0
BBX 6 3 0 6
BITMAP
5140
5550
5550
ENDCHAR
STARTCHAR quotedblright.case
ENCODING -1
SWIDTH 464 0
DWIDTH 6 0
BBX 6 3 0 7
BITMAP
5550
5550
1450
ENDCHAR
STARTCHAR quoteleft.case
ENCODING -1
SWIDTH 212 0
DWIDTH 3 0
BBX 3 3 0 6
BITMAP
50
54
54
ENDCHAR
STARTCHAR quoteright.case
ENCODING -1
SWIDTH 212 0
DWIDTH 3 0
BBX 3 3 0 7
BITMAP
54
54
14
ENDCHAR
STARTCHAR quotesinglbase.case
ENCODING -1
SWIDTH 212 0
DWIDTH 3 0
BBX 3 3 0 -1
BITMAP
54
54
14
ENDCHAR
STARTCHAR quotesingle.case
ENCODING -1
SWIDTH 212 0
DWIDTH 3 0
BBX 3 3 0 7
BITMAP
54
54
54
ENDCHAR
STARTCHAR registered.case
ENCODING -1
SWIDTH 895 0
DWIDTH 11 0
BBX 11 10 0 0
BITMAP
02A900
190180
255450
515520
515514
516814
514820
254550
190180
02A900
ENDCHAR
STARTCHAR uni030A.case
ENCODING -1
SWIDTH 0 0
DWIDTH 0 0
BBX 3 3 0 10
BITMAP
14
44
14
ENDCHAR
STARTCHAR section.case
ENCODING -1
SWIDTH 645 0
DWIDTH 8 0
BBX 8 13 0 -2
BITMAP
0550
1554
2555
1940
15A4
1554
6528
5554
1590
0554
5564
1554
0550
ENDCHAR
STARTCHAR semicolon.case
ENCODING -1
SWIDTH 338 0
DWIDTH 4 0
BBX 4 8 0 -1
BITMAP
15
15
00
00
00
15
28
54
ENDCHAR
STARTCHAR seven.case
ENCODING -1
SWIDTH 505 0
DWIDTH 6 0
BBX 6 10 0 0
BITMAP
5550
5550
5550
0150
0280
0540
0540
0600
0900
1500
ENDCHAR
STARTCHAR six.case
ENCODING -1
SWIDTH 558 0
DWIDTH 7 0
BBX 7 10 0 0
BITMAP
1A90
6560
5454
5400
5540
5690
5454
5454
6560
1A90
ENDCHAR
STARTCHAR slash.case
ENCODING -1
SWIDTH 504 0
DWIDTH 6 0
BBX 6 11 0 -1
BITMAP
0150
0150
0180
0540
0540
0A00
1500
1500
2800
5400
5400
ENDCHAR
STARTCHAR uni00AD.case
ENCODING -1
SWIDTH 445 0
DWIDTH 5 0
BBX 5 2 0 4
BITMAP
1540
6A80
ENDCHAR
STARTCHAR sterling.case
ENCODING -1
SWIDTH 618 0
DWIDTH 7 0
BBX 7 10 0 0
BITMAP
1550
1544
5414
5400
5540
AA90
5400
0000
5554
AAA8
ENDCHAR
STARTCHAR three.case
ENCODING -1
SWIDTH 558 0
DWIDTH 7 0
BBX 7 10 0 0
BITMAP
1A80
6560
5454
0054
0150
0190
0054
5454
6560
1A90
ENDCHAR
STARTCHAR threequarters.case
ENCODING -1
SWIDTH 722 0
DWIDTH 9 0
BBX 8 10 0 0
BITMAP
2905
0414
0514
5550
1450
0145
0154
0516
0516
1400
ENDCHAR
STARTCHAR uni00B3.case
ENCODING -1
SWIDTH 332 0
DWIDTH 4 0
BBX 4 5 0 5
BITMAP
29
04
05
55
14
ENDCHAR
STARTCHAR tildecomb.case
ENCODING -1
SWIDTH 0 0
DWIDTH 0 0
BBX 5 2 0 10
BITMAP
1440
4140
ENDCHAR
STARTCHAR trademark.case
ENCODING -1
SWIDTH 850 0
DWIDTH 10 0
BBX 10 5 0 5
BITMAP
556490
555590
145690
145150
145050
ENDCHAR
STARTCHAR two.case
ENCODING -1
SWIDTH 558 0
DWIDTH 7 0
BBX 7 10 0 0
BITMAP
1540
5550
5454
0054
0160
0590
1640
1500
1550
6AA0
ENDCHAR
STARTCHAR uni00B2.case
ENCODING -1
SWIDTH 339 0
DWIDTH 4 0
BBX 3 5 1 5
BITMAP
A0
14
50
50
50
ENDCHAR
STARTCHAR underscore.case
ENCODING -1
SWIDTH 667 0
DWIDTH 8 0
BBX 8 2 0 0
BITMAP
1554
6AA9
ENDCHAR
STARTCHAR yen.case
ENCODING -1
SWIDTH 769 0
DWIDTH 9 0
BBX 9 10 0 0
BITMAP
540540
151540
151500
055400
015400
015000
055400
055400
055400
015000
ENDCHAR
STARTCHAR zero.case
ENCODING -1
SWIDTH 558 0
DWIDTH 7 0
BBX 7 10 0 0
BITMAP
1A90
6560
5454
5454
5454
5454
5454
5454
6560
1A90
ENDCHAR
ENDFONT
